<svg width="800" height="600" xmlns="http://www.w3.org/2000/svg">

 <g>
  <title>Layer 1</title>
  <path stroke="#000" id="svg_2" d="m0.65,228.76445l304.81105,0l94.18896,-229.5622l94.18901,229.5622l304.811,0l-246.59687,141.87562l94.19383,229.5622l-246.59697,-141.87948l-246.59692,141.87948l94.19386,-229.5622l-246.59695,-141.87562z" fill="#fff"/>
  <path id="svg_3" d="m378.66687,79.86945c-0.84854,-0.88795 1.32909,-0.91172 0.98698,-1.89603c0.6255,-1.30434 2.25188,-2.09385 2.49139,-3.57604c-0.65962,-0.41194 -1.039,-1.40821 0.21946,-1.28993c0.92287,-0.62271 0.80753,-1.89701 1.08507,-2.83216c0.25999,-1.50936 0.31886,-3.03704 0.43053,-4.55879c-1.06782,-0.07352 -2.16205,-0.02231 -3.20251,-0.26758c0.02993,-1.01203 2.14701,-0.62371 2.24337,-1.57868c1.53932,-0.02494 0.08526,-2.08593 -0.54161,-2.57764c-0.80239,-0.8295 -1.33682,-2.13895 -0.72683,-3.16337c0.87248,-0.51964 2.84521,-0.20333 2.75605,-1.56894c-0.59336,-0.30319 -1.34671,-0.11065 -2.01175,-0.16427c0.0409,-0.63678 0.0818,-1.27357 0.12269,-1.91035c0.8795,-0.06064 1.75901,-0.12129 2.63851,-0.18194c-0.44642,-0.41591 -1.11455,-0.722 -1.28174,-1.31033c0.56868,-0.83799 1.93924,-0.76402 2.92109,-0.7561c0.95474,-0.05903 2.69547,0.51183 1.3941,1.43134c-0.10548,0.22581 -1.13201,0.78726 -0.49763,0.72605c0.81225,0 1.6245,0 2.43675,0c-0.00233,0.62251 -0.021,1.25121 0.14209,1.86042c-0.62002,0.41391 -2.63057,-0.35357 -2.0581,0.92356c0.64459,0.53395 1.63182,0.51986 2.4494,0.75502c0.47688,0.04271 0.85624,0.1541 0.68439,0.65379c0.08963,0.92775 -0.17149,1.86101 -0.88288,2.56526c-0.50358,0.73487 -1.63463,1.65484 -1.2998,2.50546c0.63348,-0.09244 1.14235,0.28042 0.63638,0.69973c0.51924,0.34463 2.34769,0.26571 1.95222,1.12851c-0.92639,0.27489 -1.92156,0.16037 -2.88267,0.18842c0.25591,2.35513 0.60975,4.71049 1.20099,7.01678c0.34545,0.51176 1.71773,0.90509 0.59152,1.57226c-0.4203,1.24245 0.92216,2.17274 1.76529,2.97018c0.92701,0.62237 0.47724,1.87463 1.78869,2.07435c1.03282,0.89685 -1.41799,0.87297 -2.0472,0.87493c-4.16549,0.04026 -8.33547,0.09659 -12.49932,-0.02373c-0.34086,-0.03856 -0.76199,-0.02974 -1.00491,-0.29017l0,0z" stroke="#000" fill="#fff"/>
  <path id="svg_4" d="m403.80734,79.6177c-0.92002,0.15536 -2.24182,-0.81446 -1.07708,-1.69584c0.98566,-0.57317 0.03983,-2.06569 1.08214,-2.79066c1.05985,-1.60576 2.1882,-3.24721 2.71637,-5.17381c-0.0737,-0.92299 -1.721,-2.45085 -0.05211,-2.75021c1.3761,0.17754 0.8728,-2.10886 1.34841,-3.09953c0.28599,-1.50369 0.49388,-3.03246 0.44257,-4.5726c-0.95834,-0.0297 -1.93629,0.09413 -2.87581,-0.15874c-0.5993,-0.87299 1.354,-1.30766 1.67631,-2.09565c0.67627,-1.13256 -0.98999,-2.3839 -0.27672,-3.72272c0.45559,-2.02669 2.56327,-3.34066 4.34667,-2.59826c1.84675,0.53149 3.21189,2.95251 2.33414,4.96635c-0.07008,0.38852 -0.61853,0.89227 -0.43536,1.20167c0.79965,0.61587 1.72552,1.15258 2.23216,2.10354c-0.71732,0.5772 -1.91759,0.13763 -2.81258,0.41182c-0.81424,0.80151 -0.00994,2.44034 0.03176,3.54c0.25401,1.25643 0.47825,2.52394 0.76934,3.76892c0.61193,0.2649 1.86881,0.57163 1.17934,1.67206c-0.98291,0.88553 -0.50177,2.29602 0.05275,3.28973c0.69018,1.5346 1.87493,2.70691 2.60073,4.20607c0.26953,0.69213 -0.69401,1.91793 0.50687,1.63128c1.30188,0.30691 0.52283,2.31024 -0.64704,1.83691c-4.31047,0.16844 -8.62979,0.23681 -12.94036,0.0505l-0.20249,-0.02085l0,0l0,0z" stroke="#000" fill="#fff"/>
  <path stroke="#000" id="svg_5" d="m133.25554,274.73217c-1.1819,0.04112 -2.91171,-0.58369 -1.70325,-1.97747c1.31569,-0.53062 -0.23384,-2.28933 1.0847,-3.11779c1.05836,-1.5419 2.49671,-2.94996 2.93077,-4.8329c-0.06741,-1.27701 -1.55725,-2.03276 -0.84646,-3.44623c-0.69734,-2.2619 -0.53618,-4.86536 0.73676,-6.89862c1.0809,-1.88848 2.39324,-3.88948 2.25483,-6.17481c-1.35565,0.5792 -2.79062,1.08667 -4.28258,0.82363c-1.40266,-0.13328 -2.66063,1.02879 -4.0914,0.39693c-1.45034,-0.3083 -2.31301,-2.2924 -1.23164,-3.45224c1.18174,-1.03278 2.91801,-1.06602 4.04503,-2.21862c1.48698,-1.26029 2.86237,-2.9649 4.9118,-3.1877c0.9058,-0.21218 1.29431,-1.14345 1.79572,-1.84136c0.41668,1.10689 1.14139,2.08568 2.23213,2.57639c2.21802,1.31449 2.77015,4.09349 3.5881,6.37797c0.60478,1.78912 1.10864,3.6571 2.12137,5.25435c0.01077,0.76657 -1.126,1.09058 -0.3582,1.98925c0.39932,2.43731 0.41651,4.93314 0.38111,7.39894c-0.67348,1.20669 -1.28694,2.55353 -0.38854,3.93837c0.60011,1.69265 2.09466,2.8028 2.82997,4.40007c0.41565,0.82707 -0.81032,2.02781 0.71715,1.81981c1.39494,0.75509 0.26857,2.59822 -1.11881,2.06202c-5.19923,0.13527 -10.4099,0.27034 -15.60857,0.11002l0,0z" fill="#fff"/>
  <path stroke="#000" id="svg_6" d="m175.04554,275.73906c-1.1819,0.04569 -2.91171,-0.64855 -1.70324,-2.19718c1.31569,-0.58957 -0.23384,-2.5437 1.0847,-3.46421c1.05836,-1.71322 2.49671,-3.27773 2.93077,-5.36989c-0.06741,-1.4189 -1.55725,-2.25862 -0.84646,-3.82914c-0.69734,-2.51322 -0.53618,-5.40595 0.73676,-7.66512c1.0809,-2.09832 2.39323,-4.32164 2.25483,-6.86089c-1.35565,0.64356 -2.79062,1.20741 -4.28258,0.91514c-1.40266,-0.14809 -2.66063,1.1431 -4.0914,0.44103c-1.45034,-0.34255 -2.31301,-2.54711 -1.23164,-3.83582c1.18174,-1.14753 2.91801,-1.18446 4.04503,-2.46514c1.48698,-1.40032 2.86237,-3.29433 4.9118,-3.54188c0.9058,-0.23575 1.29431,-1.2705 1.79572,-2.04595c0.41668,1.22988 1.14139,2.31742 2.23213,2.86265c2.21802,1.46055 2.77015,4.54832 3.5881,7.08663c0.60478,1.98792 1.10864,4.06344 2.12137,5.83816c0.01077,0.85175 -1.126,1.21176 -0.3582,2.21027c0.39932,2.70812 0.41651,5.48126 0.38111,8.22104c-0.67348,1.34077 -1.28694,2.83725 -0.38854,4.37596c0.60011,1.88072 2.09466,3.11422 2.82997,4.88897c0.41565,0.91896 -0.81032,2.25313 0.71715,2.02201c1.39494,0.83899 0.26857,2.88691 -1.11881,2.29113c-5.19923,0.1503 -10.4099,0.30038 -15.60857,0.12225l0,0z" fill="#fff"/>
  <path id="svg_7" d="m216.34564,274.7411c-1.07913,0.04455 -2.65852,-0.63233 -1.55514,-2.14226c1.20128,-0.57483 -0.21351,-2.48011 0.99038,-3.3776c0.96633,-1.67039 2.2796,-3.19579 2.67592,-5.23564c-0.06155,-1.38343 -1.42183,-2.20216 -0.77286,-3.73341c-0.6367,-2.45039 -0.48955,-5.2708 0.67269,-7.4735c0.9869,-2.04586 2.18513,-4.2136 2.05876,-6.68937c-1.23777,0.62747 -2.54796,1.17722 -3.91019,0.89227c-1.28069,-0.14439 -2.42927,1.11453 -3.73563,0.43c-1.32422,-0.33399 -2.11188,-2.48344 -1.12454,-3.73992c1.07898,-1.11884 2.66427,-1.15485 3.69329,-2.40351c1.35768,-1.36531 2.61347,-3.21197 4.48469,-3.45334c0.82704,-0.22986 1.18177,-1.23874 1.63957,-1.99481c0.38044,1.19913 1.04214,2.25949 2.03803,2.79109c2.02515,1.42403 2.52927,4.43461 3.27609,6.90946c0.55219,1.93822 1.01223,3.96186 1.9369,5.69221c0.00983,0.83045 -1.02809,1.18146 -0.32705,2.15502c0.3646,2.64042 0.38029,5.34423 0.34797,8.01551c-0.61492,1.30725 -1.17503,2.76632 -0.35475,4.26656c0.54793,1.83371 1.91252,3.03636 2.58388,4.76674c0.37951,0.89599 -0.73986,2.1968 0.65479,1.97146c1.27364,0.81801 0.24521,2.81474 -1.02152,2.23385c-4.74712,0.14654 -9.5047,0.29287 -14.2513,0.11919l0,0z" stroke="#000" fill="#fff"/>
  <path stroke="#000" id="svg_8" d="m525.76027,282.71596c-1.49022,0.05026 -3.67128,-0.7134 -2.14757,-2.4169c1.65891,-0.64853 -0.29484,-2.79807 1.36767,-3.81063c1.33445,-1.88454 3.14802,-3.60551 3.69532,-5.90688c-0.08499,-1.56079 -1.96348,-2.48449 -1.06728,-4.21205c-0.87925,-2.76454 -0.67605,-5.94654 0.92896,-8.43164c1.36287,-2.30815 3.01756,-4.7538 2.84305,-7.54698c-1.7093,0.70791 -3.51861,1.32815 -5.39978,1.00666c-1.76857,-0.1629 -3.35471,1.25741 -5.15872,0.48513c-1.82868,-0.37681 -2.91641,-2.80182 -1.55293,-4.2194c1.49002,-1.26228 3.67923,-1.30291 5.10026,-2.71165c1.87489,-1.54035 3.60907,-3.62376 6.19314,-3.89607c1.1421,-0.25933 1.63196,-1.39755 2.26416,-2.25055c0.52537,1.35287 1.43914,2.54916 2.81442,3.14892c2.79664,1.6066 3.4928,5.00315 4.52412,7.79529c0.76255,2.18671 1.39784,4.46979 2.67477,6.42197c0.01358,0.93692 -1.41974,1.33293 -0.45164,2.4313c0.50349,2.97894 0.52516,6.02939 0.48053,9.04314c-0.84917,1.47484 -1.62266,3.12098 -0.48989,4.81355c0.75666,2.0688 2.6411,3.42564 3.56822,5.37786c0.52408,1.01086 -1.02171,2.47844 0.90423,2.22421c1.75883,0.92289 0.33863,3.1756 -1.41067,2.52024c-6.55554,0.16533 -13.12553,0.33042 -19.68036,0.13447l0,0z" fill="#fff"/>
  <path stroke="#000" id="svg_9" d="m572.03539,281.71799c-1.38745,0.04912 -3.4181,-0.69719 -1.99946,-2.36197c1.5445,-0.63379 -0.27451,-2.73448 1.27335,-3.72402c1.24242,-1.84171 2.93092,-3.52356 3.44048,-5.77263c-0.07913,-1.52532 -1.82807,-2.42802 -0.99367,-4.11633c-0.81861,-2.70171 -0.62943,-5.8114 0.86489,-8.24001c1.26888,-2.25569 2.80945,-4.64576 2.64698,-7.37546c-1.59142,0.69182 -3.27596,1.29797 -5.02739,0.98378c-1.6466,-0.1592 -3.12335,1.22884 -4.80295,0.47411c-1.70257,-0.36824 -2.71528,-2.73815 -1.44584,-4.1235c1.38726,-1.2336 3.42549,-1.2733 4.74852,-2.65002c1.74559,-1.50535 3.36018,-3.5414 5.76603,-3.80753c1.06334,-0.25343 1.51941,-1.36579 2.10802,-2.1994c0.48914,1.32212 1.33989,2.49123 2.62033,3.07735c2.60377,1.57009 3.25192,4.88944 4.21212,7.61812c0.70996,2.13701 1.30144,4.3682 2.49031,6.27602c0.01264,0.91563 -1.32183,1.30264 -0.42049,2.37604c0.46877,2.91123 0.48895,5.89236 0.44739,8.83761c-0.79061,1.44132 -1.51075,3.05005 -0.45611,4.70416c0.70448,2.02178 2.45896,3.34779 3.32214,5.25564c0.48794,0.98788 -0.95125,2.42211 0.84187,2.17366c1.63754,0.90191 0.31528,3.10343 -1.31339,2.46297c-6.10345,0.16157 -12.22034,0.32291 -18.32312,0.13141l0,0z" fill="#fff"/>
  <path stroke="#000" id="svg_10" d="m620.24529,279.70797c-1.49022,0.04912 -3.67128,-0.69719 -2.14756,-2.36197c1.6589,-0.63379 -0.29484,-2.73448 1.36766,-3.72402c1.33445,-1.84171 3.14802,-3.52356 3.69531,-5.77263c-0.08499,-1.52532 -1.96348,-2.42802 -1.06728,-4.11632c-0.87925,-2.70171 -0.67605,-5.8114 0.92895,-8.24001c1.36287,-2.25569 3.01755,-4.64576 2.84304,-7.37546c-1.7093,0.69182 -3.51861,1.29796 -5.39977,0.98378c-1.76856,-0.1592 -3.3547,1.22884 -5.15871,0.47411c-1.82868,-0.36824 -2.9164,-2.73815 -1.55293,-4.1235c1.49001,-1.2336 3.67922,-1.2733 5.10025,-2.65002c1.87489,-1.50535 3.60906,-3.5414 6.19312,-3.80752c1.1421,-0.25343 1.63196,-1.36579 2.26416,-2.1994c0.52537,1.32212 1.43914,2.49123 2.81441,3.07735c2.79663,1.57009 3.49279,4.88944 4.52411,7.61812c0.76255,2.13701 1.39784,4.3682 2.67476,6.27602c0.01358,0.91563 -1.41974,1.30264 -0.45164,2.37604c0.50349,2.91123 0.52516,5.89236 0.48053,8.83761c-0.84917,1.44132 -1.62266,3.05005 -0.48989,4.70415c0.75666,2.02178 2.64109,3.34779 3.56821,5.25564c0.52408,0.98788 -1.02171,2.42211 0.90423,2.17366c1.75883,0.90191 0.33863,3.10343 -1.41067,2.46297c-6.55553,0.16157 -13.1255,0.32291 -19.68032,0.13141l0,0z" fill="#fff"/>
  <path id="svg_11" d="m264.49324,430.51884c0,0 0.72453,-4.385 0,-5.87041c-0.72539,-1.4854 -1.01469,-2.47484 -2.60969,-3.18319s-1.01384,-0.56718 -2.1736,-0.49472c-1.15977,0.07121 -2.12667,0.98944 -2.12667,1.48416c0,0 -0.72453,0.07121 -1.01384,0.49597c-0.29016,0.42476 -0.77318,2.40363 -0.77318,2.8996s0.24151,3.82033 0.48302,4.52742l-0.2876,0.14117c-0.24151,4.10142 0.96605,4.59738 0.96605,4.59738c0.43438,3.82033 0.86961,2.19375 0.86961,3.18319s-0.43523,0.63714 -0.43523,0.63714s-0.38574,1.55537 -1.35178,2.12129c-0.96605,0.56468 -6.3288,3.60545 -6.76489,4.24259c-0.43609,0.63839 -0.38659,3.60795 -0.38659,3.60795l22.99651,0c0,0 0.05035,-2.96956 -0.38574,-3.60795c-0.43694,-0.63839 -5.79969,-3.67791 -6.76574,-4.24259c-0.96605,-0.56593 -1.35178,-2.12129 -1.35178,-2.12129s-0.43523,0.3523 -0.43523,-0.63714s0.43523,0.63714 0.87047,-3.18319c0,0 1.2067,-0.49597 0.96605,-4.59738l-0.29016,0z" stroke="#000" fill="#fff"/>
  <path id="svg_12" d="m303.89758,428.97616c0,0 0.85054,-5.95108 0,-7.96698c-0.85154,-2.01591 -1.19116,-3.35871 -3.06355,-4.32004s-1.19016,-0.76974 -2.55162,-0.6714c-1.36147,0.09664 -2.49652,1.34281 -2.49652,2.01421c0,0 -0.85054,0.09664 -1.19016,0.6731c-0.34062,0.57646 -0.90765,3.26207 -0.90765,3.93517s0.28351,5.18473 0.56703,6.14436l-0.33761,0.19159c-0.28351,5.56621 1.13406,6.23931 1.13406,6.23931c0.50992,5.18473 1.02085,2.97723 1.02085,4.32004s-0.51093,0.86469 -0.51093,0.86469s-0.45282,2.11085 -1.58688,2.8789c-1.13406,0.76635 -7.42947,4.89311 -7.94139,5.75779c-0.51193,0.86638 -0.45382,4.8965 -0.45382,4.8965l26.99593,0c0,0 0.05911,-4.03012 -0.45282,-4.8965c-0.51293,-0.86638 -6.80834,-4.99145 -7.9424,-5.75779c-1.13406,-0.76805 -1.58688,-2.8789 -1.58688,-2.8789s-0.51093,0.47812 -0.51093,-0.86469s0.51093,0.86469 1.02185,-4.32004c0,0 1.41657,-0.6731 1.13406,-6.23931l-0.34062,0z" stroke="#000" fill="#fff"/>
  <path id="svg_13" d="m348.71812,426.36896c0,0 0.94505,-6.5775 0,-8.80561c-0.94616,-2.22811 -1.32351,-3.71226 -3.40395,-4.77478s-1.3224,-0.85077 -2.83514,-0.74208c-1.51274,0.10681 -2.77392,1.48415 -2.77392,2.22623c0,0 -0.94505,0.10681 -1.3224,0.74395c-0.37846,0.63714 -1.00849,3.60545 -1.00849,4.3494s0.31502,5.73048 0.63003,6.79113l-0.37512,0.21175c-0.31502,6.15212 1.26006,6.89607 1.26006,6.89607c0.56658,5.73048 1.13428,3.29062 1.13428,4.77478s-0.5677,0.95571 -0.5677,0.95571s-0.50313,2.33305 -1.7632,3.18194c-1.26006,0.84702 -8.25496,5.40817 -8.82377,6.36387c-0.56881,0.95758 -0.50425,5.41192 -0.50425,5.41192l29.99548,0c0,0 0.06567,-4.45434 -0.50313,-5.41192c-0.56992,-0.95758 -7.56482,-5.51686 -8.82489,-6.36387c-1.26006,-0.84889 -1.7632,-3.18194 -1.7632,-3.18194s-0.5677,0.52845 -0.5677,-0.95571s0.5677,0.95571 1.13539,-4.77478c0,0 1.57396,-0.74395 1.26006,-6.89607l-0.37846,0z" stroke="#000" fill="#fff"/>
  <path id="svg_14" d="m452.469,425.30462c0,0 0.81904,-5.63786 0,-7.54766c-0.82001,-1.9098 -1.14704,-3.18194 -2.95009,-4.09267s-1.14608,-0.72923 -2.45712,-0.63607c-1.31104,0.09155 -2.40406,1.27213 -2.40406,1.9082c0,0 -0.81904,0.09155 -1.14608,0.63767c-0.328,0.54612 -0.87403,3.09038 -0.87403,3.72805s0.27301,4.91184 0.54603,5.82097l-0.32511,0.1815c-0.27301,5.27324 1.09205,5.91092 1.09205,5.91092c0.49104,4.91184 0.98304,2.82054 0.98304,4.09267s-0.492,0.81918 -0.492,0.81918s-0.43605,1.99975 -1.5281,2.72737c-1.09205,0.72601 -7.15431,4.63557 -7.64727,5.45475c-0.49297,0.82078 -0.43701,4.63879 -0.43701,4.63879l25.9961,0c0,0 0.05692,-3.818 -0.43605,-4.63879c-0.49393,-0.82078 -6.55618,-4.72873 -7.64824,-5.45475c-1.09205,-0.72762 -1.5281,-2.72737 -1.5281,-2.72737s-0.492,0.45296 -0.492,-0.81918s0.492,0.81918 0.98401,-4.09267c0,0 1.3641,-0.63767 1.09205,-5.91092l-0.328,0z" stroke="#000" fill="#fff"/>
  <path id="svg_15" d="m491.54463,420.98141c0,0 0.69303,-5.48125 0,-7.338c-0.69385,-1.85675 -0.97057,-3.09355 -2.49623,-3.97898s-0.96976,-0.70897 -2.0791,-0.6184c-1.10934,0.08901 -2.0342,1.23679 -2.0342,1.85519c0,0 -0.69303,0.08901 -0.96976,0.61996c-0.27754,0.53095 -0.73956,3.00454 -0.73956,3.6245s0.23101,4.7754 0.46202,5.65927l-0.27509,0.17646c-0.23101,5.12677 0.92404,5.74672 0.92404,5.74672c0.41549,4.7754 0.8318,2.74219 0.8318,3.97898s-0.41631,0.79642 -0.41631,0.79642s-0.36896,1.9442 -1.29301,2.65161c-0.92404,0.70585 -6.05363,4.50681 -6.47076,5.30323c-0.41713,0.79798 -0.36978,4.50993 -0.36978,4.50993l21.99666,0c0,0 0.04816,-3.71195 -0.36896,-4.50993c-0.41794,-0.79798 -5.54753,-4.59738 -6.47158,-5.30323c-0.92404,-0.70741 -1.29301,-2.65161 -1.29301,-2.65161s-0.41631,0.44037 -0.41631,-0.79642s0.41631,0.79642 0.83262,-3.97898c0,0 1.15424,-0.61996 0.92404,-5.74672l-0.27754,0z" stroke="#000" fill="#fff"/>
  <path id="svg_16" d="m536.773,427.60324c0,0 0.94504,-5.32465 0,-7.12835c-0.94616,-1.80371 -1.32351,-3.00517 -3.40394,-3.8653s-1.3224,-0.68872 -2.83513,-0.60073c-1.51274,0.08647 -2.77391,1.20146 -2.77391,1.80219c0,0 -0.94504,0.08647 -1.3224,0.60225c-0.37846,0.51578 -1.00849,2.9187 -1.00849,3.52094s0.31501,4.63897 0.63003,5.49759l-0.37512,0.17142c-0.31501,4.98029 1.26006,5.58254 1.26006,5.58254c0.56658,4.63897 1.13428,2.66384 1.13428,3.8653s-0.56769,0.77367 -0.56769,0.77367s-0.50313,1.88866 -1.76319,2.57586c-1.26006,0.68568 -8.25495,4.37804 -8.82376,5.15171c-0.56881,0.77518 -0.50425,4.38108 -0.50425,4.38108l29.99544,0c0,0 0.06567,-3.60589 -0.50313,-4.38108c-0.56992,-0.77518 -7.56481,-4.46603 -8.82487,-5.15171c-1.26006,-0.6872 -1.76319,-2.57586 -1.76319,-2.57586s-0.56769,0.42779 -0.56769,-0.77367s0.56769,0.77367 1.13539,-3.8653c0,0 1.57396,-0.60225 1.26006,-5.58254l-0.37846,0z" stroke="#000" fill="#fff"/>
 </g>
</svg>