<?xml version="1.0" standalone="no"?><!DOCTYPE svg PUBLIC "-//W3C//DTD SVG 1.1//EN" "http://www.w3.org/Graphics/SVG/1.1/DTD/svg11.dtd"><svg t="1681435659084" class="icon" viewBox="0 0 1024 1024" version="1.1" xmlns="http://www.w3.org/2000/svg" p-id="25217" xmlns:xlink="http://www.w3.org/1999/xlink" width="200" height="200"><path d="M508.0576 952.576a30.3104 30.3104 0 0 1-7.9872-1.0752c-90.1632-24.3712-384.3584-123.904-384.3584-378.88V207.9232a30.72 30.72 0 0 1 32.4096-30.72c7.8336 0.4608 15.616 0.6656 23.2448 0.6656 176.4864 0 317.0816-109.6704 318.5152-110.848a30.72 30.72 0 0 1 40.96 2.7136c118.8352 122.88 341.0944 104.96 343.3472 104.7552a30.72 30.72 0 0 1 33.4848 30.72v366.2848c0 112.64-54.7328 206.6944-162.6112 280.1664-62.0544 42.24-139.2128 75.8272-229.3248 99.9424a31.5392 31.5392 0 0 1-7.68 0.9728zM177.152 239.36v332.8c0 204.8 243.5072 292.8128 331.008 317.44 130.0992-35.84 338.3296-124.1088 338.3296-318.5664V237.1584c-69.1712 0.6656-229.4784-9.0112-340.1728-106.1888-48.9472 33.1776-174.5408 106.7008-329.1648 108.3904z" fill="#37313F" p-id="25218"></path><path d="M622.3872 593.92a122.88 122.88 0 1 1 0-186.9824V333.9776a184.32 184.32 0 1 0 0 332.8z" fill="#FFBD5C" p-id="25219"></path></svg>